<?xml version="1.0" encoding="utf-8"?>
<!-- Generator: Adobe Illustrator 18.0.0, SVG Export Plug-In . SVG Version: 6.00 Build 0)  -->
<!DOCTYPE svg PUBLIC "-//W3C//DTD SVG 1.1//EN" "http://www.w3.org/Graphics/SVG/1.1/DTD/svg11.dtd">
<svg version="1.1" id="Github" xmlns="http://www.w3.org/2000/svg" xmlns:xlink="http://www.w3.org/1999/xlink" x="0px" y="0px"
	 viewBox="0 0 540 360" enable-background="new 0 0 540 360" xml:space="preserve">
<path fill="#FFFFFF" d="M327.2,203.6c-12.9,0-23.4,14.5-23.4,32.4c0,17.9,10.5,32.4,23.4,32.4c12.9,0,23.4-14.5,23.4-32.4
	C350.6,218.1,340.2,203.6,327.2,203.6z M408.7,119.3c2.7-6.6,2.8-43.9-11.4-79.7c0,0-32.6,3.6-81.9,37.4
	c-10.4-2.9-27.9-4.3-45.3-4.3c-17.5,0-35,1.4-45.4,4.3c-49.3-33.9-81.9-37.4-81.9-37.4c-14.2,35.8-14.1,73.1-11.4,79.7
	c-16.7,18.1-26.9,39.9-26.9,69.7c0,129.3,107.3,131.4,134.4,131.4c6.2,0,18.3,0,31.2,0c12.9,0,25.1,0,31.2,0
	c27.1,0,134.4-2.1,134.4-131.4C435.6,159.2,425.4,137.4,408.7,119.3z M270.5,304.5h-1c-67.9,0-120.8-8.1-120.8-74.1
	c0-15.8,5.6-30.5,18.8-42.6c22.1-20.3,59.5-9.6,101.9-9.6c0.2,0,0.4,0,0.5,0c0.2,0,0.3,0,0.5,0c42.4,0,79.8-10.7,102,9.6
	c13.2,12.2,18.8,26.8,18.8,42.6C391.3,296.4,338.4,304.5,270.5,304.5z M212.8,203.6c-12.9,0-23.4,14.5-23.4,32.4
	c0,17.9,10.5,32.4,23.4,32.4c12.9,0,23.4-14.5,23.4-32.4C236.2,218.1,225.7,203.6,212.8,203.6z"/>
</svg>
