<?xml version="1.0" encoding="utf-8"?>
<!-- Generator: Adobe Illustrator 18.0.0, SVG Export Plug-In . SVG Version: 6.00 Build 0)  -->
<!DOCTYPE svg PUBLIC "-//W3C//DTD SVG 1.1//EN" "http://www.w3.org/Graphics/SVG/1.1/DTD/svg11.dtd">
<svg version="1.1" id="LinkedIn" xmlns="http://www.w3.org/2000/svg" xmlns:xlink="http://www.w3.org/1999/xlink" x="0px" y="0px"
	 viewBox="0 0 540 360" enable-background="new 0 0 540 360" xml:space="preserve">
<g>
	<path fill="#FFFFFF" d="M180,54c0,19.1-12.8,35.6-36,35.6c-21.9,0-36-15.5-36-34.6c0-19.6,13.7-36.9,36-36.9S179.6,34.4,180,54z
		 M108,342V108h72v234H108z"/>
	<path fill="#FFFFFF" d="M216,188c0-27.8-0.9-51-1.8-71.1h64.7l3.2,31h1.4c9.1-14.6,31.4-36,68.8-36c45.6,0,79.8,30.5,79.8,96.2v134
		h-72V218.5c0-28.7-10.9-50.6-36-50.6c-19.1,0-28.7,15.5-33.7,28.2c-1.8,4.6-2.3,10.9-2.3,17.3V342h-72V188z"/>
</g>
</svg>
